<svg width="72" height="68" viewBox="0 0 72 68" fill="none" xmlns="http://www.w3.org/2000/svg">
<path d="M13.0109 22.734C18.4312 28.3494 27.8048 31.505 32.9853 32.4706C32.4629 27.5545 28.5725 18.4979 23.1836 12.9149C17.0132 6.52238 9.25466 4.99489 6.2903 4.81441C6.28457 7.97787 6.85844 16.36 13.0109 22.734Z" fill="#FCE4EC"/>
<path d="M58.9114 22.734C53.4911 28.3494 44.1176 31.505 38.937 32.4706C39.4595 27.5545 43.3498 18.4979 48.7388 12.9149C54.9091 6.52238 62.6677 4.99489 65.6321 4.81441C65.6378 7.97787 65.0639 16.36 58.9114 22.734Z" fill="#FCE4EC"/>
<path d="M13.0109 45.2655C18.4312 39.6501 27.8048 36.4945 32.9853 35.5289C32.4629 40.445 28.5725 49.5016 23.1836 55.0846C17.0132 61.4771 9.25466 63.0046 6.2903 63.1851C6.28457 60.0216 6.85844 51.6395 13.0109 45.2655Z" fill="#FCE4EC"/>
<path d="M58.9881 45.2655C53.5678 39.6501 44.1943 36.4945 39.0137 35.5289C39.5361 40.445 43.4265 49.5016 48.8155 55.0846C54.9858 61.4771 62.7444 63.0046 65.7087 63.1851C65.7144 60.0216 65.1406 51.6395 58.9881 45.2655Z" fill="#FCE4EC"/>
</svg>
